#!OML:ASF H:\Terrain\Patient Classification 1\Walking\liu\liu.ASF
:FULLY-SPECIFIED
:DEGREES
307
root 15.024300 25.129349 9.278700 11.060910 11.174835 7.650045
lowerback -12.035806 -7.443750 -10.354680
upperback -1.133905 -9.109725 2.860845
thorax 6.944611 -4.750545 7.644150
lowerneck -28.285648 -7.024365 -19.212900
upperneck 32.652451 -8.780490 18.354450
head 16.343100 -3.489795 8.620140
rclavicle -0.000000 -0.000000
rhumerus -74.567703 9.085680 -124.121246
rradius 51.920998
rwrist -28.492798
rhand -42.418652 -40.778999
rfingers 10.687531
rthumb -2.483160 -85.738953
lclavicle -0.000000 -0.000000
lhumerus -17.997150 -53.341354 135.485703
lradius 55.839447
lwrist 26.486248
lhand -16.950901 -31.201349
lfingers 10.687531
lthumb 22.096350 12.983549
rfemur -66.290848 27.230400 -1.274300
rtibia 37.853851
rfoot -49.267799 -29.811302
rtoes -32.065048
lfemur 20.559900 4.391535 -43.057053
ltibia 0.000000
lfoot -21.996450 1.309207
ltoes 1.798425
308
root 15.003601 25.097849 9.501345 11.263200 11.510640 7.271745
lowerback -12.180195 -7.344180 -9.987510
upperback -1.185817 -8.999206 2.834385
thorax 6.913395 -4.685115 7.419750
lowerneck -28.059750 -7.140885 -18.800701
upperneck 32.411552 -9.057465 18.266850
head 16.235550 -3.597120 8.461530
rclavicle -0.000000 0.000000
rhumerus -74.179947 7.802460 -123.792000
rradius 50.573547
rwrist -27.095999
rhand -39.860550 -41.166451
rfingers 10.687531
rthumb -0.012492 -86.136002
lclavicle -0.000000 0.000000
lhumerus -18.590401 -55.255951 135.977097
lradius 56.804100
lwrist 26.681700
lhand -17.317801 -31.844851
lfingers 10.687531
lthumb 21.742800 12.365654
rfemur -66.497101 26.860199 -0.720987
rtibia 37.537800
rfoot -49.793552 -29.985748
rtoes -31.330498
lfemur 21.202351 4.448550 -42.279751
ltibia 0.000000
lfoot -22.088400 0.977217
ltoes 0.788883
309
root 14.988405 25.068150 9.736980 11.414730 11.894985 7.577744
lowerback -12.330885 -7.393560 -10.387546
upperback -1.080924 -9.013306 2.772330
thorax 7.145280 -4.708770 7.558170
lowerneck -27.528000 -7.134105 -19.220100
upperneck 31.604698 -9.106501 19.017300
head 15.888000 -3.584745 8.781855
rclavicle 0.000000 -0.000000
rhumerus -74.024994 8.037060 -123.964806
rradius 49.981350
rwrist -26.954102
rhand -39.840599 -39.086399
rfingers 10.687531
rthumb 0.006762 -84.055954
lclavicle 0.000000 -0.000000
lhumerus -18.876301 -55.621799 136.578308
lradius 57.500702
lwrist 25.452599
lhand -16.353001 -32.551052
lfingers 10.687531
lthumb 22.672350 11.591084
rfemur -66.154800 25.309200 -0.080525
rtibia 37.106548
rfoot -49.168201 -29.755199
rtoes -32.068649
lfemur 21.963001 4.398615 -42.222000
ltibia 0.000000
lfoot -22.039951 0.460098
ltoes 0.131565
310
root 14.978054 25.031551 9.983955 11.505360 12.013395 7.950285
lowerback -12.309345 -7.434840 -10.760700
upperback -1.131817 -9.034140 2.722845
thorax 7.116045 -4.723770 7.714680
lowerneck -28.612049 -7.467840 -19.047899
upperneck 32.650501 -9.442320 18.420750
head 16.503000 -3.759120 8.511209
rclavicle 0.000000 -0.000000
rhumerus -73.946854 7.737930 -123.565048
rradius 48.994049
rwrist -26.281052
rhand -39.605698 -37.290600
rfingers 10.687531
rthumb 0.233620 -82.260147
lclavicle 0.000000 -0.000000
lhumerus -19.441502 -55.989750 137.406754
lradius 58.064102
lwrist 24.435150
lhand -15.585600 -32.461048
lfingers 10.687531
lthumb 23.411551 11.624400
rfemur -65.598152 22.619699 1.359822
rtibia 36.692551
rfoot -47.386353 -28.309349
rtoes -31.940701
lfemur 22.803150 4.601580 -42.226349
ltibia -0.000000
lfoot -21.691351 -0.218133
ltoes 0.849656
311
root 14.960235 25.003349 10.226805 11.590395 12.072885 7.309845
lowerback -12.437460 -7.299360 -10.038615
upperback -1.151856 -8.916825 2.842635
thorax 7.087755 -4.650795 7.447680
lowerneck -28.837502 -7.668810 -18.994801
upperneck 32.653202 -9.680970 18.281099
head 16.576649 -3.871935 8.409105
rclavicle -0.000000 0.000000
rhumerus -73.774200 7.086884 -123.335098
rradius 48.105751
rwrist -25.544399
rhand -39.483299 -38.893951
rfingers 10.687531
rthumb 0.351878 -83.863350
lclavicle -0.000000 0.000000
lhumerus -19.768650 -58.049400 137.821808
lradius 58.696350
lwrist 24.885300
lhand -15.411449 -32.078400
lfingers 10.687531
lthumb 23.579250 11.993970
rfemur -65.189697 19.743601 4.226670
rtibia 36.508949
rfoot -44.187149 -27.255449
rtoes -31.950451
lfemur 23.545799 4.948200 -41.100300
ltibia -0.000000
lfoot -21.302700 -0.704080
ltoes 0.240969
312
root 14.939070 24.968552 10.488255 11.564535 12.232485 6.812250
lowerback -12.636690 -7.273965 -9.619560
upperback -1.165080 -8.914740 2.968830
thorax 7.155645 -4.643940 7.332420
lowerneck -28.820549 -7.641376 -18.747601
upperneck 32.605049 -9.672045 18.112350
head 16.538401 -3.866490 8.300955
rclavicle 0.000000 -0.000000
rhumerus -74.172897 7.788060 -123.929550
rradius 48.079201
rwrist -25.900051
rhand -41.164799 -37.989899
rfingers 10.687531
rthumb -1.272204 -82.957047
lclavicle 0.000000 -0.000000
lhumerus -20.485500 -59.058754 138.356094
lradius 59.381550
lwrist 24.429150
lhand -14.575935 -32.498253
lfingers 10.687531
lthumb 24.383850 11.509530
rfemur -64.701302 17.274300 6.736035
rtibia 36.558750
rfoot -41.691898 -25.951801
rtoes -29.317200
lfemur 24.462599 5.201970 -40.162651
ltibia -0.000000
lfoot -21.260099 -0.663117
ltoes -4.011465
313
root 14.920666 24.916351 10.760295 11.544750 12.407430 7.073865
lowerback -12.737025 -7.388580 -10.001534
upperback -1.220320 -9.021435 2.888925
thorax 7.199265 -4.702845 7.439280
lowerneck -28.684050 -7.490610 -18.604198
upperneck 32.670750 -9.581610 18.322651
head 16.525351 -3.793620 8.374740
rclavicle -0.000000 0.000000
rhumerus -74.691452 8.267071 -124.364395
rradius 47.978401
rwrist -26.388149
rhand -42.607651 -33.195000
rfingers 10.687531
rthumb -2.665785 -78.153603
lclavicle -0.000000 0.000000
lhumerus -21.711599 -58.828503 139.083298
lradius 60.128098
lwrist 22.836599
lhand -13.689165 -33.425251
lfingers 10.687531
lthumb 25.237501 10.511370
rfemur -64.278152 14.889929 8.229959
rtibia 36.868050
rfoot -40.560150 -23.432100
rtoes -26.250601
lfemur 25.427399 5.363355 -40.042801
ltibia 0.000000
lfoot -21.032249 -0.779268
ltoes -8.922690
314
root 14.903385 24.864000 11.030581 11.586030 12.585810 7.586940
lowerback -12.833671 -7.388505 -10.494615
upperback -1.256263 -8.959185 2.709720
thorax 7.237830 -4.679280 7.529115
lowerneck -28.214699 -7.559535 -18.913950
upperneck 32.415451 -9.695595 18.620251
head 16.380449 -3.852390 8.515275
rclavicle -0.000000 -0.000000
rhumerus -74.960396 7.824495 -124.185448
rradius 47.579849
rwrist -26.018400
rhand -42.440548 -33.333000
rfingers 10.687531
rthumb -2.504385 -78.292953
lclavicle -0.000000 -0.000000
lhumerus -22.923750 -59.161346 140.012100
lradius 60.764847
lwrist 21.480900
lhand -13.058640 -34.124851
lfingers 10.687531
lthumb 25.844551 9.759480
rfemur -64.001251 11.998694 9.723090
rtibia 37.613701
rfoot -39.118500 -20.580900
rtoes -29.437351
lfemur 26.385149 5.478435 -40.153950
ltibia 0.000000
lfoot -20.665800 -1.326895
ltoes -12.647085
315
root 14.876459 24.812550 11.296335 11.684580 12.712906 7.946175
lowerback -12.752251 -7.352730 -10.857165
upperback -1.463804 -8.881905 2.605215
thorax 6.987510 -4.633110 7.649205
lowerneck -27.938101 -7.631700 -18.951450
upperneck 32.665348 -9.716850 18.145950
head 16.404749 -3.928365 8.346405
rclavicle -0.000000 -0.000000
rhumerus -75.244499 7.463040 -123.884102
rradius 47.173798
rwrist -25.563000
rhand -41.190453 -36.467098
rfingers 10.687531
rthumb -1.296984 -81.434097
lclavicle -0.000000 -0.000000
lhumerus -24.260851 -59.277451 141.219299
lradius 61.197453
lwrist 20.167650
lhand -12.205290 -34.191299
lfingers 10.687531
lthumb 26.665649 9.619905
rfemur -64.096054 9.856800 10.985445
rtibia 38.811451
rfoot -36.939899 -18.523800
rtoes -32.488201
lfemur 27.307350 5.623920 -39.986099
ltibia -0.000000
lfoot -20.066549 -2.169465
ltoes -9.249120
316
root 14.838241 24.774899 11.543595 11.815275 12.932925 7.864020
lowerback -12.527235 -7.431465 -10.913116
upperback -1.639005 -9.003930 2.638290
thorax 6.704265 -4.681485 7.722105
lowerneck -27.451801 -7.480695 -19.665600
upperneck 31.878599 -9.632370 19.515299
head 16.089001 -3.810240 8.979630
rclavicle 0.000000 0.000000
rhumerus -75.204147 7.111140 -123.658951
rradius 46.586250
rwrist -25.621651
rhand -42.097500 -34.684650
rfingers 10.687531
rthumb -2.173020 -79.647003
lclavicle 0.000000 0.000000
lhumerus -25.131901 -59.082748 141.880203
lradius 61.632751
lwrist 19.588200
lhand -10.696980 -34.321350
lfingers 10.687531
lthumb 28.116749 9.354000
rfemur -64.429054 8.620245 12.219930
rtibia 40.206902
rfoot -33.739349 -16.724998
rtoes -27.282448
lfemur 28.062000 5.700840 -39.259949
ltibia -0.000000
lfoot -19.099499 -2.857320
ltoes -5.140170
317
root 14.798820 24.743099 11.799870 11.840745 13.372801 7.919805
lowerback -12.491115 -7.526775 -11.142675
upperback -1.538970 -9.111135 2.646495
thorax 6.830565 -4.746105 7.839931
lowerneck -27.130949 -7.476915 -20.641649
upperneck 30.685501 -9.715965 21.297001
head 15.715050 -3.743070 9.772680
rclavicle 0.000000 -0.000000
rhumerus -74.928146 6.867945 -123.593102
rradius 45.835651
rwrist -24.955200
rhand -44.319298 -31.477650
rfingers 10.687531
rthumb -4.318845 -76.418098
lclavicle 0.000000 -0.000000
lhumerus -25.591650 -59.470055 142.325394
lradius 62.046600
lwrist 19.419300
lhand -9.130605 -34.976547
lfingers 10.687531
lthumb 29.623049 8.548680
rfemur -64.423950 7.135815 13.393051
rtibia 41.667301
rfoot -33.777000 -14.816355
rtoes -34.160698
lfemur 28.946251 5.557515 -38.661602
ltibia 0.000000
lfoot -18.488550 -3.797430
ltoes -6.513660
318
root 14.762341 24.694799 12.072375 11.871120 13.647480 8.129865
lowerback -12.525616 -7.500780 -11.378056
upperback -1.498209 -9.044430 2.505285
thorax 6.891555 -4.718490 7.827869
lowerneck -28.438198 -7.769640 -19.413900
upperneck 32.189548 -9.988755 19.362900
head 16.434900 -3.936135 8.831880
rclavicle 0.000000 0.000000
rhumerus -75.198601 7.388550 -124.193253
rradius 45.675148
rwrist -23.728951
rhand -44.764351 -31.978348
rfingers 10.687531
rthumb -4.748610 -76.912796
lclavicle 0.000000 0.000000
lhumerus -26.545048 -60.071697 143.072540
lradius 62.453850
lwrist 18.844950
lhand -8.236139 -35.314499
lfingers 10.687531
lthumb 30.482700 8.120760
rfemur -64.460999 5.864235 14.302650
rtibia 43.257748
rfoot -32.523453 -12.970125
rtoes -41.518349
lfemur 29.898151 5.547315 -38.227501
ltibia 0.000000
lfoot -17.839201 -5.271135
ltoes -6.414510
319
root 14.746695 24.655800 12.362564 11.785800 13.759769 8.574015
lowerback -12.435135 -7.477320 -11.570866
upperback -1.578555 -8.990191 2.199900
thorax 6.733905 -4.683120 7.633185
lowerneck -29.263201 -8.008650 -18.818249
upperneck 33.187950 -10.279455 18.489599
head 16.950600 -4.091550 8.381040
rclavicle 0.000000 0.000000
rhumerus -75.524551 7.542555 -124.506454
rradius 45.705299
rwrist -22.836300
rhand -42.858150 -36.214798
rfingers 10.687531
rthumb -2.907690 -81.171303
lclavicle 0.000000 0.000000
lhumerus -28.077751 -60.621750 143.983795
lradius 62.942402
lwrist 18.574501
lhand -7.868865 -35.245049
lfingers 10.687531
lthumb 30.835651 8.152349
rfemur -64.402504 4.526205 14.875349
rtibia 44.818802
rfoot -28.774950 -10.399530
rtoes -45.628651
lfemur 31.090799 5.697870 -38.177551
ltibia 0.000000
lfoot -16.943701 -5.627160
ltoes -6.112650
320
root 14.739105 24.631651 12.667305 11.557500 14.011395 9.074940
lowerback -12.409874 -7.515300 -11.836140
upperback -1.535010 -9.006480 1.967400
thorax 6.769920 -4.695120 7.533285
lowerneck -29.266050 -8.084206 -19.122450
upperneck 33.158550 -10.354395 18.735750
head 16.974451 -4.123260 8.515830
rclavicle -0.000000 0.000000
rhumerus -75.594604 7.198260 -124.198952
rradius 45.895199
rwrist -23.064899
rhand -41.089199 -40.104900
rfingers 10.687531
rthumb -1.199201 -85.072350
lclavicle -0.000000 0.000000
lhumerus -29.369400 -61.237648 144.908096
lradius 63.203098
lwrist 18.210300
lhand -7.490550 -35.005650
lfingers 10.687531
lthumb 31.199249 8.352060
rfemur -64.214699 2.923425 15.327149
rtibia 46.245903
rfoot -23.420101 -7.916115
rtoes -45.329250
lfemur 32.543701 5.722965 -38.223301
ltibia -0.000000
lfoot -16.117350 -5.466555
ltoes -6.767085
